<svg width="535.000000" height="401.000000" viewBox="0 0 535 401" fill="none" xmlns="http://www.w3.org/2000/svg" xmlns:xlink="http://www.w3.org/1999/xlink">
	<desc>
			Created with Pixso.
	</desc>
	<defs>
		<filter id="filter_238_242_dd" x="0.000000" y="0.000000" width="535.000000" height="401.000000" filterUnits="userSpaceOnUse" color-interpolation-filters="sRGB">
			<feFlood flood-opacity="0" result="BackgroundImageFix"/>
			<feGaussianBlur in="BackgroundImage" stdDeviation="13.3333"/>
			<feComposite in2="SourceAlpha" operator="in" result="effect_backgroundBlur_1"/>
			<feBlend mode="normal" in="SourceGraphic" in2="effect_backgroundBlur_1" result="shape"/>
		</filter>
		<linearGradient x1="0.000183" y1="401.494324" x2="522.617676" y2="-57.851196" id="paint_linear_238_242_0" gradientUnits="userSpaceOnUse">
			<stop stop-color="#9AA4FF"/>
			<stop offset="1.000000" stop-color="#5868ED"/>
		</linearGradient>
		<linearGradient x1="-156.242065" y1="578.086609" x2="674.341675" y2="-153.941101" id="paint_linear_238_242_1" gradientUnits="userSpaceOnUse">
			<stop stop-color="#C0AEFF"/>
			<stop offset="1.000000" stop-color="#8272FF"/>
		</linearGradient>
	</defs>
	<g filter="url(#filter_238_242_dd)">
		<path id="Glass Element" d="M535 16L535 241.11C535 249.95 527.83 257.11 519 257.11L252.34 257.11C243.5 257.11 236.34 264.27 236.34 273.11L236.34 385C236.34 393.83 229.17 401 220.34 401L16 401C7.16 401 0 393.83 0 385L0 217.24C0 208.4 7.16 201.24 16 201.24L220.34 201.24C229.17 201.24 236.34 194.07 236.34 185.24L236.34 16C236.34 7.16 243.5 0 252.34 0L519 0C527.83 0 535 7.16 535 16Z" fill="url(#paint_linear_238_242_0)" fill-opacity="1.000000" fill-rule="nonzero"/>
		<path id="Glass Element" d="M535 16L535 241.11C535 249.95 527.83 257.11 519 257.11L252.34 257.11C243.5 257.11 236.34 264.27 236.34 273.11L236.34 385C236.34 393.83 229.17 401 220.34 401L16 401C7.16 401 0 393.83 0 385L0 217.24C0 208.4 7.16 201.24 16 201.24L220.34 201.24C229.17 201.24 236.34 194.07 236.34 185.24L236.34 16C236.34 7.16 243.5 0 252.34 0L519 0C527.83 0 535 7.16 535 16Z" fill="url(#paint_linear_238_242_1)" fill-opacity="1.000000" fill-rule="nonzero"/>
	</g>
</svg>
