<svg width="428.021484" height="372.499390" viewBox="0 0 428.021 372.499" fill="none" xmlns="http://www.w3.org/2000/svg" xmlns:xlink="http://www.w3.org/1999/xlink">
	<desc>
			Created with Pixso.
	</desc>
	<defs>
		<filter id="filter_238_144_dd" x="0.000000" y="0.000000" width="428.021484" height="372.499390" filterUnits="userSpaceOnUse" color-interpolation-filters="sRGB">
			<feFlood flood-opacity="0" result="BackgroundImageFix"/>
			<feGaussianBlur in="BackgroundImage" stdDeviation="13.3333"/>
			<feComposite in2="SourceAlpha" operator="in" result="effect_backgroundBlur_1"/>
			<feBlend mode="normal" in="SourceGraphic" in2="effect_backgroundBlur_1" result="shape"/>
		</filter>
		<linearGradient x1="-124.999817" y1="537.000366" x2="539.500000" y2="-142.999756" id="paint_linear_238_144_0" gradientUnits="userSpaceOnUse">
			<stop stop-color="#C0AEFF"/>
			<stop offset="1.000000" stop-color="#8272FF"/>
		</linearGradient>
	</defs>
	<g filter="url(#filter_238_144_dd)">
		<path id="Glass Element" d="M428.02 16L428.02 154.99C428.02 163.83 420.85 170.99 412.02 170.99L255 170.99C246.16 170.99 239 178.16 239 186.99L239 356.49C239 365.33 231.83 372.49 223 372.49L16 372.49C7.16 372.49 0 365.33 0 356.49L0 135.99C0 127.16 7.16 119.99 16 119.99L223 119.99C231.83 119.99 239 112.83 239 103.99L239 16C239 7.16 246.16 0 255 0L412.02 0C420.85 0 428.02 7.16 428.02 16Z" fill="url(#paint_linear_238_144_0)" fill-opacity="0.550000" fill-rule="nonzero"/>
	</g>
</svg>
