<svg width="36.000000" height="36.000000" viewBox="0 0 36 36" fill="none" xmlns="http://www.w3.org/2000/svg" xmlns:xlink="http://www.w3.org/1999/xlink">
	<desc>
			Created with Pixso.
	</desc>
	<defs>
		<clipPath id="clip153_222">
			<rect id="material-symbols:point-scan" rx="0.000000" width="35.000000" height="35.000000" transform="translate(0.500000 0.500000)" fill="white" fill-opacity="0"/>
		</clipPath>
	</defs>
	<rect id="material-symbols:point-scan" rx="0.000000" width="35.000000" height="35.000000" transform="translate(0.500000 0.500000)" fill="#FFFFFF" fill-opacity="0"/>
	<g clip-path="url(#clip153_222)">
		<path id="Vector" d="M18 21C17.17 21 16.46 20.7 15.88 20.11C15.29 19.53 15 18.82 15 18C14.99 17.17 15.29 16.46 15.88 15.88C16.47 15.29 17.17 15 18 15C18.82 14.99 19.52 15.29 20.11 15.88C20.71 16.47 21 17.17 21 18C20.99 18.82 20.7 19.52 20.11 20.11C19.53 20.71 18.82 21 18 21ZM16.5 12L16.5 4.5L19.5 4.5L19.5 12L16.5 12ZM16.5 31.5L16.5 24L19.5 24L19.5 31.5L16.5 31.5ZM24 19.5L24 16.5L31.5 16.5L31.5 19.5L24 19.5ZM4.5 19.5L4.5 16.5L12 16.5L12 19.5L4.5 19.5Z" fill="#FFFFFF" fill-opacity="1.000000" fill-rule="nonzero"/>
	</g>
</svg>
