<svg width="1054.000000" height="364.067627" viewBox="0 0 1054 364.068" fill="none" xmlns="http://www.w3.org/2000/svg" xmlns:xlink="http://www.w3.org/1999/xlink">
	<desc>
			Created with Pixso.
	</desc>
	<defs>
		<filter id="filter_0_40_dd" x="0.000000" y="0.000000" width="1054.000000" height="364.067627" filterUnits="userSpaceOnUse" color-interpolation-filters="sRGB">
			<feFlood flood-opacity="0" result="BackgroundImageFix"/>
			<feGaussianBlur in="BackgroundImage" stdDeviation="13.3333"/>
			<feComposite in2="SourceAlpha" operator="in" result="effect_backgroundBlur_1"/>
			<feBlend mode="normal" in="SourceGraphic" in2="effect_backgroundBlur_1" result="shape"/>
		</filter>
	</defs>
	<g filter="url(#filter_0_40_dd)">
		<path id="Glass Element" d="M0 16L6.1e-5 201.63C6.1e-5 210.47 7.16 217.63 16 217.63L207.5 217.63C216.33 217.63 223.5 224.8 223.5 233.63L223.5 348.06C223.5 356.9 230.66 364.06 239.5 364.06L1038 364.06C1046.84 364.06 1054 356.9 1054 348.06L1054 128.87C1054 120.02 1046.81 112.85 1037.94 112.87L239.54 115.29C230.69 115.31 223.5 108.14 223.5 99.28L223.5 16C223.5 7.16 216.33 0 207.5 0L16 0C7.16 0 0 7.16 0 16Z" fill="#FFFFFF" fill-opacity="0.120000" fill-rule="evenodd"/>
	</g>
</svg>
