<svg width="32.000000" height="32.000000" viewBox="0 0 32 32" fill="none" xmlns="http://www.w3.org/2000/svg" xmlns:xlink="http://www.w3.org/1999/xlink">
	<desc>
			Created with Pixso.
	</desc>
	<defs>
		<clipPath id="clip153_209">
			<rect id="ri:nft-fill" rx="0.000000" width="31.000000" height="31.000000" transform="translate(0.500000 0.500000)" fill="white" fill-opacity="0"/>
		</clipPath>
	</defs>
	<rect id="ri:nft-fill" rx="0.000000" width="31.000000" height="31.000000" transform="translate(0.500000 0.500000)" fill="#FFFFFF" fill-opacity="0"/>
	<g clip-path="url(#clip153_209)">
		<path id="Vector" d="M12 16C12.7 16 13.38 15.71 13.88 15.21C14.38 14.71 14.66 14.04 14.66 13.33C14.66 12.62 14.38 11.94 13.88 11.44C13.38 10.94 12.7 10.66 12 10.66C11.29 10.66 10.61 10.94 10.11 11.44C9.61 11.94 9.33 12.62 9.33 13.33C9.33 14.04 9.61 14.71 10.11 15.21C10.61 15.71 11.29 16 12 16ZM16 1.33L28.66 8.66L28.66 23.33L16 30.66L3.33 23.33L3.33 8.66L16 1.33ZM6 10.2L6 21.79L9.16 23.62L19.92 15.73L26 19.37L26 10.2L16 4.41L6 10.2Z" fill="#FFFFFF" fill-opacity="1.000000" fill-rule="nonzero"/>
	</g>
</svg>
