<svg width="173.003418" height="34.318359" viewBox="0 0 173.003 34.3184" fill="none" xmlns="http://www.w3.org/2000/svg" xmlns:xlink="http://www.w3.org/1999/xlink">
	<desc>
			Created with Pixso.
	</desc>
	<defs/>
	<mask id="mask153_780" mask-type="alpha" maskUnits="userSpaceOnUse" x="0.000000" y="0.431580" width="36.422852" height="33.239136">
		<path id="Vector" d="M0 0.43L36.42 0.43L36.42 33.67L0 33.67L0 0.43Z" fill="#000000" fill-opacity="1.000000" fill-rule="nonzero"/>
	</mask>
	<g mask="url(#mask153_780)">
		<path id="Vector" d="M34.23 0.54L2.18 0.54C0.98 0.54 0 1.52 0 2.73L0 31.44C0 32.65 0.98 33.63 2.18 33.63L34.23 33.63C35.44 33.63 36.42 32.65 36.42 31.44L36.42 2.73C36.42 1.52 35.44 0.54 34.23 0.54ZM27.63 4.21C27.63 3.77 27.99 3.41 28.44 3.41L29.25 3.41C29.69 3.41 30.05 3.77 30.05 4.21L30.05 5.13C30.05 5.58 29.69 5.94 29.25 5.94L28.44 5.94C27.99 5.94 27.63 5.58 27.63 5.13L27.63 4.21ZM23.87 4.21C23.87 3.77 24.23 3.41 24.68 3.41L25.49 3.41C25.93 3.41 26.3 3.77 26.3 4.21L26.3 5.13C26.3 5.58 25.93 5.94 25.49 5.94L24.68 5.94C24.23 5.94 23.87 5.58 23.87 5.13L23.87 4.21ZM33.79 31L2.62 31L2.62 8.37L33.79 8.37L33.79 31ZM33.81 5.13C33.81 5.58 33.45 5.94 33 5.94L32.2 5.94C31.75 5.94 31.39 5.58 31.39 5.13L31.39 4.21C31.39 3.77 31.75 3.41 32.2 3.41L33 3.41C33.45 3.41 33.81 3.77 33.81 4.21L33.81 5.13Z" fill="#FFC25B" fill-opacity="1.000000" fill-rule="nonzero"/>
	</g>
	<mask id="mask153_785" mask-type="alpha" maskUnits="userSpaceOnUse" x="0.000000" y="0.000000" width="36.422852" height="34.318359">
		<path id="Vector" d="M0 0L36.42 0L36.42 34.31L0 34.31L0 0Z" fill="#000000" fill-opacity="1.000000" fill-rule="nonzero"/>
	</mask>
	<path id="Vector" d="M7.81 20.54L13.67 23.26C13.82 23.33 13.98 23.37 14.15 23.37C14.37 23.37 14.58 23.31 14.76 23.19C15.09 22.98 15.29 22.62 15.29 22.23L15.29 22.2C15.29 21.76 15.03 21.35 14.63 21.17L10.97 19.46L14.63 17.76C15.03 17.58 15.29 17.17 15.29 16.73L15.29 16.7C15.29 16.31 15.09 15.95 14.76 15.74C14.58 15.62 14.37 15.56 14.15 15.56C13.98 15.56 13.82 15.6 13.67 15.67L7.81 18.39C7.41 18.58 7.15 18.98 7.15 19.42L7.15 19.51C7.15 19.95 7.41 20.35 7.81 20.54Z" fill="#FFC25B" fill-opacity="1.000000" fill-rule="nonzero"/>
	<path id="Vector" d="M13.67 23.26C13.82 23.33 13.98 23.37 14.15 23.37C14.37 23.37 14.58 23.31 14.76 23.19C15.09 22.98 15.29 22.62 15.29 22.23L15.29 22.2C15.29 21.76 15.03 21.35 14.63 21.17L10.97 19.46L14.63 17.76C15.03 17.58 15.29 17.17 15.29 16.73L15.29 16.7C15.29 16.31 15.09 15.95 14.76 15.74C14.58 15.62 14.37 15.56 14.15 15.56C13.98 15.56 13.82 15.6 13.67 15.67L7.81 18.39C7.41 18.58 7.15 18.98 7.15 19.42L7.15 19.51C7.15 19.95 7.41 20.35 7.81 20.54L13.67 23.26Z" stroke="#FFC25B" stroke-opacity="1.000000" stroke-width="0.092871"/>
	<path id="Vector" d="M15.34 26.09C15.56 26.38 15.9 26.55 16.26 26.55L16.29 26.55C16.79 26.55 17.23 26.24 17.38 25.76L21.24 13.8C21.35 13.46 21.29 13.08 21.07 12.79C20.86 12.49 20.51 12.32 20.15 12.32L20.12 12.32C19.63 12.32 19.19 12.64 19.04 13.11L15.18 25.07C15.07 25.41 15.13 25.79 15.34 26.09Z" fill="#FFC25B" fill-opacity="1.000000" fill-rule="nonzero"/>
	<path id="Vector" d="M16.26 26.55L16.29 26.55C16.79 26.55 17.23 26.24 17.38 25.76L21.24 13.8C21.35 13.46 21.29 13.08 21.07 12.79C20.86 12.49 20.51 12.32 20.15 12.32L20.12 12.32C19.63 12.32 19.19 12.64 19.04 13.11L15.18 25.07C15.07 25.41 15.13 25.79 15.34 26.09C15.56 26.38 15.9 26.55 16.26 26.55Z" stroke="#FFC25B" stroke-opacity="1.000000" stroke-width="0.092871"/>
	<path id="Vector" d="M21.12 16.73C21.12 17.17 21.38 17.57 21.78 17.76L25.45 19.46L21.78 21.17C21.38 21.35 21.12 21.76 21.12 22.2L21.12 22.23C21.12 22.62 21.32 22.98 21.65 23.19C21.83 23.31 22.04 23.37 22.26 23.37C22.43 23.37 22.59 23.33 22.74 23.26L28.6 20.54C29 20.35 29.26 19.95 29.26 19.5L29.26 19.42C29.26 18.98 29 18.58 28.6 18.39L22.74 15.67C22.59 15.6 22.43 15.56 22.26 15.56C22.04 15.56 21.83 15.62 21.65 15.74C21.32 15.95 21.12 16.31 21.12 16.7L21.12 16.73L21.12 16.73Z" fill="#FFC25B" fill-opacity="1.000000" fill-rule="nonzero"/>
	<path id="Vector" d="M21.78 17.76L25.45 19.46L21.78 21.17C21.38 21.35 21.12 21.76 21.12 22.2L21.12 22.23C21.12 22.62 21.32 22.98 21.65 23.19C21.83 23.31 22.04 23.37 22.26 23.37C22.43 23.37 22.59 23.33 22.74 23.26L28.6 20.54C29 20.35 29.26 19.95 29.26 19.5L29.26 19.42C29.26 18.98 29 18.58 28.6 18.39L22.74 15.67C22.59 15.6 22.43 15.56 22.26 15.56C22.04 15.56 21.83 15.62 21.65 15.74C21.32 15.95 21.12 16.31 21.12 16.7L21.12 16.73L21.12 16.73C21.12 17.17 21.38 17.57 21.78 17.76Z" stroke="#FFC25B" stroke-opacity="1.000000" stroke-width="0.092871"/>
	<path id="Vector" d="M56.37 25.65L49.95 9.65L53.48 9.65L56.63 17.65L59.7 9.81L59.85 9.81L62.92 17.65L66.08 9.65L69.61 9.65L63.2 25.58L62.64 25.58L59.77 18.64L56.91 25.65L56.37 25.65Z" fill="#FFFFFF" fill-opacity="1.000000" fill-rule="nonzero"/>
	<path id="Vector" d="M79.62 25.32L71.51 25.32L71.51 9.65L79.35 9.65L79.35 12.79L74.64 12.79L74.64 15.92L78.76 15.92L78.76 19.05L74.64 19.05L74.64 22.19L79.62 22.19L79.62 25.32Z" fill="#FFFFFF" fill-opacity="1.000000" fill-rule="nonzero"/>
	<path id="Vector" d="M82.55 25.32L82.55 9.63L88.75 9.63C89.68 9.63 90.48 9.84 91.16 10.25C91.83 10.66 92.34 11.22 92.7 11.93C93.06 12.65 93.22 13.47 93.19 14.39C93.18 14.97 93.06 15.55 92.83 16.12C92.61 16.69 92.25 17.14 91.75 17.48C92.26 17.83 92.66 18.28 92.94 18.85C93.23 19.41 93.37 20 93.37 20.61C93.37 21.49 93.16 22.28 92.75 22.99C92.33 23.7 91.77 24.26 91.07 24.69C90.37 25.11 89.59 25.32 88.75 25.32L82.55 25.32ZM85.7 12.76L85.7 15.92L88.48 15.92C88.94 15.92 89.29 15.77 89.54 15.45C89.8 15.14 89.93 14.77 89.93 14.34C89.93 13.91 89.8 13.53 89.54 13.23C89.29 12.92 88.94 12.76 88.48 12.76L85.7 12.76ZM85.7 19.05L85.7 22.19L88.48 22.19C88.94 22.19 89.31 22.04 89.61 21.73C89.91 21.42 90.06 21.05 90.06 20.61C90.06 20.17 89.91 19.81 89.61 19.51C89.31 19.2 88.94 19.05 88.48 19.05L85.7 19.05Z" fill="#FFC25B" fill-opacity="1.000000" fill-rule="nonzero"/>
	<path id="Vector" d="M106.13 13.29C105.83 13.13 105.48 12.98 105.06 12.83C104.65 12.69 104.1 12.61 103.41 12.61C102.52 12.61 101.76 12.78 101.13 13.13C100.5 13.47 100 13.93 99.62 14.5C99.24 15.07 98.98 15.69 98.85 16.37C98.72 17.05 98.72 17.73 98.85 18.41C98.98 19.09 99.24 19.71 99.62 20.28C100 20.85 100.5 21.31 101.13 21.65C101.76 22 102.52 22.17 103.41 22.17C104.1 22.17 104.7 22.09 105.22 21.93C105.73 21.77 106.14 21.61 106.43 21.46L106.85 24.71C106.37 24.9 105.81 25.05 105.18 25.18C104.55 25.3 103.96 25.37 103.41 25.37C102.08 25.37 100.92 25.14 99.93 24.7C98.93 24.25 98.1 23.65 97.44 22.89C96.77 22.13 96.28 21.28 95.95 20.34C95.62 19.39 95.46 18.42 95.46 17.41C95.46 16.4 95.62 15.43 95.95 14.49C96.28 13.54 96.77 12.69 97.44 11.93C98.1 11.17 98.93 10.57 99.93 10.13C100.92 9.68 102.08 9.46 103.41 9.46C104.55 9.46 105.58 9.66 106.5 10.07L106.13 13.29Z" fill="#FFFFFF" fill-opacity="1.000000" fill-rule="nonzero"/>
	<path id="Vector" d="M116.89 25.54C115.54 25.54 114.36 25.31 113.35 24.86C112.33 24.41 111.49 23.8 110.82 23.03C110.14 22.27 109.64 21.4 109.3 20.44C108.97 19.47 108.8 18.48 108.8 17.47C108.8 16.45 108.97 15.46 109.3 14.5C109.64 13.53 110.14 12.67 110.82 11.9C111.49 11.14 112.33 10.53 113.35 10.07C114.36 9.62 115.54 9.39 116.89 9.39C118.23 9.39 119.41 9.62 120.42 10.07C121.44 10.53 122.28 11.14 122.95 11.9C123.63 12.67 124.13 13.53 124.47 14.5C124.8 15.46 124.97 16.45 124.97 17.47C124.97 18.48 124.8 19.47 124.47 20.44C124.13 21.4 123.63 22.27 122.95 23.03C122.28 23.8 121.44 24.41 120.42 24.86C119.41 25.31 118.23 25.54 116.89 25.54ZM116.89 22.3C117.78 22.3 118.54 22.12 119.18 21.77C119.83 21.42 120.34 20.96 120.72 20.38C121.1 19.8 121.35 19.17 121.49 18.49C121.62 17.8 121.62 17.11 121.49 16.43C121.35 15.74 121.1 15.11 120.72 14.53C120.34 13.95 119.83 13.49 119.18 13.14C118.54 12.79 117.78 12.61 116.89 12.61C115.99 12.61 115.23 12.79 114.58 13.14C113.94 13.49 113.43 13.95 113.05 14.53C112.67 15.11 112.41 15.74 112.28 16.43C112.15 17.11 112.15 17.8 112.28 18.49C112.41 19.17 112.67 19.8 113.05 20.38C113.43 20.96 113.94 21.42 114.58 21.77C115.23 22.12 115.99 22.3 116.89 22.3Z" fill="#FFFFFF" fill-opacity="1.000000" fill-rule="nonzero"/>
	<path id="Vector" d="M127.18 24.31L127.58 21.03C128.17 21.45 128.77 21.75 129.36 21.94C129.95 22.12 130.49 22.22 130.97 22.25C131.46 22.28 131.81 22.29 132.04 22.27C132.51 22.24 132.91 22.08 133.24 21.78C133.57 21.48 133.71 21.12 133.67 20.7C133.64 20.25 133.47 19.9 133.16 19.67C132.86 19.43 132.48 19.24 132.04 19.1C131.23 18.79 130.46 18.44 129.75 18.04C129.05 17.64 128.48 17.14 128.05 16.54C127.62 15.94 127.4 15.2 127.4 14.32C127.4 13.44 127.59 12.65 127.96 11.95C128.33 11.24 128.85 10.67 129.52 10.25C130.2 9.82 130.96 9.59 131.83 9.54C132.24 9.52 132.74 9.53 133.33 9.59C133.92 9.65 134.72 9.85 135.73 10.2L135.33 13.23C134.47 12.88 133.78 12.68 133.27 12.62C132.76 12.57 132.38 12.55 132.13 12.57C131.58 12.6 131.17 12.79 130.91 13.14C130.66 13.49 130.55 13.88 130.58 14.32C130.62 14.76 130.81 15.09 131.15 15.32C131.48 15.55 131.88 15.74 132.33 15.9C133.15 16.19 133.9 16.55 134.59 16.99C135.27 17.42 135.83 17.93 136.24 18.54C136.66 19.15 136.87 19.87 136.87 20.7C136.87 21.56 136.67 22.34 136.3 23.04C135.92 23.74 135.37 24.31 134.66 24.73C133.95 25.15 133.11 25.39 132.13 25.45C131.84 25.47 131.44 25.45 130.94 25.42C130.44 25.38 129.86 25.28 129.22 25.11C128.58 24.95 127.9 24.68 127.18 24.31Z" fill="#FFFFFF" fill-opacity="1.000000" fill-rule="nonzero"/>
	<path id="Vector" d="M146.68 16.29L152.86 9.41L153.85 9.41L153.85 25.32L150.67 25.32L150.69 16.58L146.68 20.78L142.67 16.58L142.67 25.32L139.5 25.32L139.5 9.41L140.5 9.41L146.68 16.29Z" fill="#FFFFFF" fill-opacity="1.000000" fill-rule="nonzero"/>
	<path id="Vector" d="M164.92 25.54C163.57 25.54 162.39 25.31 161.38 24.86C160.36 24.41 159.52 23.8 158.84 23.03C158.17 22.27 157.67 21.4 157.33 20.44C157 19.47 156.83 18.48 156.83 17.47C156.83 16.45 157 15.46 157.33 14.5C157.67 13.53 158.17 12.67 158.84 11.9C159.52 11.14 160.36 10.53 161.38 10.07C162.39 9.62 163.57 9.39 164.92 9.39C166.26 9.39 167.44 9.62 168.45 10.07C169.47 10.53 170.31 11.14 170.98 11.9C171.65 12.67 172.16 13.53 172.5 14.5C172.83 15.46 173 16.45 173 17.47C173 18.48 172.83 19.47 172.5 20.44C172.16 21.4 171.65 22.27 170.98 23.03C170.31 23.8 169.47 24.41 168.45 24.86C167.44 25.31 166.26 25.54 164.92 25.54ZM164.92 22.3C165.81 22.3 166.57 22.12 167.21 21.77C167.86 21.42 168.37 20.96 168.75 20.38C169.13 19.8 169.38 19.17 169.52 18.49C169.65 17.8 169.65 17.11 169.52 16.43C169.38 15.74 169.13 15.11 168.75 14.53C168.37 13.95 167.86 13.49 167.21 13.14C166.57 12.79 165.81 12.61 164.92 12.61C164.02 12.61 163.26 12.79 162.61 13.14C161.97 13.49 161.46 13.95 161.08 14.53C160.7 15.11 160.44 15.74 160.31 16.43C160.18 17.11 160.18 17.8 160.31 18.49C160.44 19.17 160.7 19.8 161.08 20.38C161.46 20.96 161.97 21.42 162.61 21.77C163.26 22.12 164.02 22.3 164.92 22.3Z" fill="#FFFFFF" fill-opacity="1.000000" fill-rule="nonzero"/>
	<mask id="mask153_824" mask-type="alpha" maskUnits="userSpaceOnUse" x="141.257812" y="16.948120" width="11.331055" height="3.040955">
		<path id="Vector" d="M141.25 16.94L152.58 16.94L152.58 19.98L141.25 19.98L141.25 16.94Z" fill="#000000" fill-opacity="1.000000" fill-rule="nonzero"/>
	</mask>
	<g mask="url(#mask153_824)">
		<path id="Vector" d="M141.25 16.94L152.58 16.94L152.58 19.98L141.25 19.98L141.25 16.94Z" fill="#FFC25B" fill-opacity="1.000000" fill-rule="nonzero"/>
	</g>
	<mask id="mask153_829" mask-type="alpha" maskUnits="userSpaceOnUse" x="54.022461" y="15.428467" width="10.780762" height="3.040039">
		<path id="Vector" d="M54.02 15.42L64.8 15.42L64.8 18.46L54.02 18.46L54.02 15.42Z" fill="#000000" fill-opacity="1.000000" fill-rule="nonzero"/>
	</mask>
	<g mask="url(#mask153_829)">
		<path id="Vector" d="M54.02 15.42L64.8 15.42L64.8 18.46L54.02 18.46L54.02 15.42Z" fill="#FFC25B" fill-opacity="1.000000" fill-rule="nonzero"/>
	</g>
</svg>
