<svg width="31.000000" height="31.000000" viewBox="0 0 31 31" fill="none" xmlns="http://www.w3.org/2000/svg" xmlns:xlink="http://www.w3.org/1999/xlink">
	<desc>
			Created with Pixso.
	</desc>
	<defs>
		<clipPath id="clip153_231">
			<rect id="mdi:marketplace" rx="0.000000" width="30.000000" height="30.000000" transform="translate(0.500000 0.500000)" fill="white" fill-opacity="0"/>
		</clipPath>
	</defs>
	<rect id="mdi:marketplace" rx="0.000000" width="30.000000" height="30.000000" transform="translate(0.500000 0.500000)" fill="#FFFFFF" fill-opacity="0"/>
	<g clip-path="url(#clip153_231)">
		<path id="Vector" d="M15.5 16.79C13.78 16.79 12.14 16.11 10.93 14.9C9.72 13.68 9.04 12.04 9.04 10.33L11.62 10.33C11.62 11.36 12.03 12.34 12.75 13.07C13.48 13.8 14.47 14.2 15.5 14.2C16.52 14.2 17.51 13.8 18.24 13.07C18.96 12.34 19.37 11.36 19.37 10.33L21.95 10.33C21.95 12.04 21.27 13.68 20.06 14.9C18.85 16.11 17.21 16.79 15.5 16.79ZM15.5 3.87C16.52 3.87 17.51 4.28 18.24 5.01C18.96 5.73 19.37 6.72 19.37 7.75L11.62 7.75C11.62 6.72 12.03 5.73 12.75 5.01C13.48 4.28 14.47 3.87 15.5 3.87ZM24.54 7.75L21.95 7.75C21.95 6.9 21.79 6.06 21.46 5.27C21.14 4.49 20.66 3.78 20.06 3.18C19.46 2.58 18.75 2.1 17.97 1.78C17.18 1.45 16.34 1.29 15.5 1.29C13.78 1.29 12.14 1.97 10.93 3.18C9.72 4.39 9.04 6.03 9.04 7.75L6.45 7.75C5.02 7.75 3.87 8.89 3.87 10.33L3.87 25.83C3.87 26.51 4.14 27.17 4.63 27.66C5.11 28.14 5.77 28.41 6.45 28.41L24.54 28.41C25.22 28.41 25.88 28.14 26.36 27.66C26.85 27.17 27.12 26.51 27.12 25.83L27.12 10.33C27.12 9.64 26.85 8.99 26.36 8.5C25.88 8.02 25.22 7.75 24.54 7.75Z" fill="#FFFFFF" fill-opacity="1.000000" fill-rule="nonzero"/>
	</g>
</svg>
