<svg width="324.000000" height="291.000000" viewBox="0 0 324 291" fill="none" xmlns="http://www.w3.org/2000/svg" xmlns:xlink="http://www.w3.org/1999/xlink">
	<desc>
			Created with Pixso.
	</desc>
	<defs/>
	<path id="Union" d="M125 40.3L125 12C125 5.37 119.62 0 113 0L12 0C5.37 0 0 5.37 0 12L0 279C0 285.62 5.37 291 12 291L312 291C318.62 291 324 285.62 324 279L324 12C324 5.37 318.62 0 312 0L211 0C204.37 0 199 5.37 199 12L199 40.3C199 46.92 193.62 52.3 187 52.3L137 52.3C130.37 52.3 125 46.92 125 40.3Z" fill="#FFFFFF" fill-opacity="1.000000" fill-rule="nonzero"/>
</svg>
